<mxfile host="app.diagrams.net" modified="2023-12-11T13:48:42.156Z" agent="Mozilla/5.0 (Macintosh; Intel Mac OS X 10_15_7) AppleWebKit/537.36 (KHTML, like Gecko) Chrome/119.0.0.0 Safari/537.36" version="22.1.7" etag="ToxJTwZbWXcTd486mprc" type="github">
  <diagram name="Сторінка-1" id="yH47ILF7CwjGgU6W7x9F">
    <mxGraphModel>
      <root>
        <mxCell id="0" />
        <mxCell id="1" parent="0" />
      </root>
    </mxGraphModel>
  </diagram>
</mxfile>
